<svg xmlns="http://www.w3.org/2000/svg" viewBox="0 0 100 100" width="512" height="512" role="img" aria-label="zabari.net app icon">
  <rect x="0" y="0" width="100" height="100" rx="22" fill="#162E4E"></rect>
  <circle cx="50" cy="50" r="40" fill="none" stroke="#C29B47" stroke-width="1.4" opacity="0.55"></circle>
  <g transform="translate(50 51) skewX(-7) scale(0.6) translate(-50 -50)" fill="#FAF6F0">
    <g transform="translate(8 18)">
      <path d="M6 12 L46 8 L45 21 L9 25 Z"></path>
      <path d="M42 12 L48 22 L14 82 L6 71 Z"></path>
      <path d="M5 74 L47 70 L46 85 L6 88 Z"></path>
    </g>
    <g transform="translate(48 18)">
      <path d="M6 90 L6 10 L19 8 L18 90 Z"></path>
      <path d="M8 10 L20 8 L48 80 L36 88 Z"></path>
      <path d="M36 90 L36 12 L49 8 L48 90 Z"></path>
    </g>
  </g>
  <circle cx="70" cy="28" r="6.2" fill="#C29B47"></circle>
  <circle cx="70" cy="28" r="2.6" fill="#162E4E"></circle>
  <g transform="translate(50 52) scale(0.62) translate(-50 -50)"><path d="M20 88 C36 82 58 82 80 86 C62 90 40 92 24 96 C18 95 17 90 20 88 Z" fill="#C29B47"></path></g>
</svg>